<mxfile host="app.diagrams.net" modified="2022-08-02T23:08:16.955Z" agent="5.0 (Windows NT 10.0; Win64; x64) AppleWebKit/537.36 (KHTML, like Gecko) Chrome/103.0.0.0 Safari/537.36" etag="HoLx2WRiQWZw0LUX27AT" version="20.2.2" type="github">
  <diagram id="mzk9SwCpc_YaUarCZSDZ" name="Page-1">
    <mxGraphModel dx="1038" dy="547" grid="1" gridSize="10" guides="1" tooltips="1" connect="1" arrows="1" fold="1" page="1" pageScale="1" pageWidth="850" pageHeight="1100" math="0" shadow="0">
      <root>
        <mxCell id="0" />
        <mxCell id="1" parent="0" />
        <mxCell id="kTm349HKzVO3cgaGmi-_-4" style="edgeStyle=orthogonalEdgeStyle;rounded=0;orthogonalLoop=1;jettySize=auto;html=1;entryX=0;entryY=0.5;entryDx=0;entryDy=0;" edge="1" parent="1" source="kTm349HKzVO3cgaGmi-_-1" target="kTm349HKzVO3cgaGmi-_-2">
          <mxGeometry relative="1" as="geometry" />
        </mxCell>
        <mxCell id="kTm349HKzVO3cgaGmi-_-1" value="Teste Erosional&amp;nbsp;" style="rounded=1;whiteSpace=wrap;html=1;" vertex="1" parent="1">
          <mxGeometry x="120" y="260" width="120" height="60" as="geometry" />
        </mxCell>
        <mxCell id="kTm349HKzVO3cgaGmi-_-5" style="edgeStyle=orthogonalEdgeStyle;rounded=0;orthogonalLoop=1;jettySize=auto;html=1;entryX=0;entryY=0.5;entryDx=0;entryDy=0;" edge="1" parent="1" source="kTm349HKzVO3cgaGmi-_-2" target="kTm349HKzVO3cgaGmi-_-3">
          <mxGeometry relative="1" as="geometry" />
        </mxCell>
        <mxCell id="kTm349HKzVO3cgaGmi-_-2" value="Teste de desempenho" style="rounded=1;whiteSpace=wrap;html=1;" vertex="1" parent="1">
          <mxGeometry x="340" y="260" width="120" height="60" as="geometry" />
        </mxCell>
        <mxCell id="kTm349HKzVO3cgaGmi-_-3" value="Teste de Estanqueidade da válvula de retenção" style="rounded=1;whiteSpace=wrap;html=1;" vertex="1" parent="1">
          <mxGeometry x="550" y="260" width="120" height="60" as="geometry" />
        </mxCell>
      </root>
    </mxGraphModel>
  </diagram>
</mxfile>
